<?xml version="1.0" encoding="UTF-8" standalone="no"?>
<svg
   xmlns:dc="http://purl.org/dc/elements/1.1/"
   xmlns:cc="http://creativecommons.org/ns#"
   xmlns:rdf="http://www.w3.org/1999/02/22-rdf-syntax-ns#"
   xmlns:svg="http://www.w3.org/2000/svg"
   xmlns="http://www.w3.org/2000/svg"
   id="svg8"
   version="1.1"
   viewBox="0 0 109.74926 102.36253"
   height="102.36253mm"
   width="109.74926mm">
  <defs
     id="defs2" />
  <metadata
     id="metadata5">
    <rdf:RDF>
      <cc:Work
         rdf:about="">
        <dc:format>image/svg+xml</dc:format>
        <dc:type
           rdf:resource="http://purl.org/dc/dcmitype/StillImage" />
        <dc:title></dc:title>
      </cc:Work>
    </rdf:RDF>
  </metadata>
  <g
     transform="translate(-54.349189,-81.777066)"
     id="layer1">
    <g
       transform="translate(47.590984,13.911412)"
       id="layer1-1">
      <g
         transform="matrix(0.26458333,0,0,0.26458333,-327.45589,21.332026)"
         id="g98">
        <path
           style="fill:#00d264"
           d="m 1620.2714,202.55714 c -2.5,-1.9 -5.1,-3.7 -8.3,-5.8 -1.4,-0.9 -2.7,-1.7 -4.1,-2.5 -2.8,-1.7 -5.7,-3.2 -8.6,-4.6 l -2.8,-1.4 c -38.4,-17.8 -87.6,-16.9 -125.8,5.9 -38.2,-22.7 -86.9,-23.9 -126.3,-5.6 l -2.3,1.1 c -3,1.5 -5.8,3 -8.6,4.6 -1.5,0.9 -2.8,1.7 -4.2,2.6 -3.1,2 -5.7,3.8 -8.2,5.7 -36.2,27.3 -57.9,74.3 -57.9,125.8 0.7,116.6 135.6,223.1 205.6,234.1 l 1.8,0.3 1.8,-0.3 c 70,-11.1 204.9,-117.6 205.6,-234.2 0.1,-51.3 -21.5,-98.3 -57.7,-125.7 z"
           id="path22" />
        <g
           transform="translate(1248.5714,162.85714)"
           id="g32">
          <g
             id="g30">
            <path
               style="fill:#00965a"
               d="m 229.1,385.4 c 2.4,-1 4.8,-2.1 7.2,-3.2 0.9,-0.4 1.7,-0.9 2.6,-1.3 1.3,-0.6 2.6,-1.3 3.9,-2 1.4,-0.7 2.8,-1.5 4.2,-2.2 0.7,-0.4 1.3,-0.7 2,-1.1 23.8,-13.4 44.7,-31.9 61,-53.8 19.2,-26 32,-57.1 35.7,-89.3 3.6,-31.5 -0.8,-64.8 -15.4,-93.1 -10.5,-20.1 -26.7,-38.1 -46.9,-48.7 -11.2,-5.8 -23.8,-9.7 -36.7,-10.9 -23.4,-2.6 -46.9,3.6 -64.3,22.1 -7.7,8.2 -13.6,18.9 -16.7,31.8 l -0.1,0.4 -0.3,1.2 -0.3,1.2 -0.3,1.2 -0.2,1.2 -0.2,1.2 c -0.1,0.6 -0.2,1.2 -0.3,1.9 -0.1,1.1 -0.3,2.3 -0.4,3.4 -0.1,1.2 -0.1,2.3 -0.2,3.5 0,0.5 0,0.9 0,1.2 1.3,-31 26.8,-55.8 58.2,-55.8 32.2,0 58.2,26.1 58.2,58.3 0,8.7 -1.9,16.9 -5.3,24.3 l -0.4,1.3 c -11.6,31.8 -39.7,62.9 -73.9,76.1 -11.5,4.4 -23.6,6.9 -36.1,6.9 -2.2,0 -4.4,-0.1 -6.7,-0.2 -1,0 -2,-0.1 -3,-0.2 -1.7,-0.1 -3.4,-0.3 -5,-0.5 -1.3,-0.1 -2.6,-0.3 -3.8,-0.5 -1.5,-0.2 -2.9,-0.5 -4.4,-0.7 -0.8,-0.2 -1.7,-0.3 -2.6,-0.5 -2.3,-0.5 -4.6,-1 -6.9,-1.6 l -0.9,-0.3 c -32,-8.7 -62.2,-29.3 -83.3,-55.4 -0.5,-0.5 -0.9,-1.1 -1.3,-1.7 -0.7,-0.9 -1.4,-1.7 -2,-2.6 -0.6,-0.8 -1.3,-1.7 -1.9,-2.6 -0.5,-0.7 -1,-1.4 -1.5,-2.1 -0.6,-0.8 -1.2,-1.7 -1.7,-2.5 -0.6,-0.9 -1.2,-1.9 -1.8,-2.8 -0.4,-0.6 -0.8,-1.2 -1.2,-1.8 -0.8,-1.4 -1.7,-2.8 -2.5,-4.2 L 33.1,180.1 33,180 c -0.3,-0.6 -0.7,-1.3 -1,-1.9 -0.7,-1.3 -1.3,-2.5 -2,-3.8 -0.5,-1 -1,-2 -1.5,-3 l -0.3,-0.7 c -0.6,-1.4 -1.2,-2.8 -1.7,-4.2 l -0.1,-0.3 C 27.1,274.9 154,377.4 222,388.2 v 0 c 2.2,-0.8 4.3,-1.7 6.5,-2.5 z"
               id="path24" />
            <path
               style="fill:#00d264"
               d="m 28.2,170.4 0.3,0.7 c 0.5,1 1,2 1.5,3 0.6,1.3 1.3,2.5 2,3.8 0.3,0.6 0.7,1.3 1,1.9 l 0.1,0.1 0.5,0.9 c 0.8,1.4 1.6,2.8 2.5,4.2 0.4,0.6 0.8,1.2 1.2,1.8 0.6,0.9 1.2,1.9 1.8,2.8 0.6,0.9 1.1,1.7 1.7,2.5 0.5,0.7 1,1.4 1.5,2.1 0.6,0.9 1.3,1.7 1.9,2.6 0.7,0.9 1.4,1.7 2,2.6 0.4,0.6 0.9,1.1 1.3,1.7 21.1,26 51.3,46.6 83.3,55.4 l 0.9,0.3 c 2.3,0.6 4.6,1.1 6.9,1.6 0.9,0.2 1.7,0.3 2.6,0.5 1.5,0.3 2.9,0.5 4.4,0.7 1.3,0.2 2.5,0.4 3.8,0.5 1.7,0.2 3.4,0.4 5,0.5 1,0.1 2,0.1 3,0.2 2.2,0.1 4.5,0.2 6.7,0.2 12.5,-0.1 24.6,-2.6 36.1,-6.9 34.3,-13.2 62.4,-44.3 73.9,-76.1 l 0.5,-1.3 c -9.2,20 -29.5,34 -52.9,34 -21.5,0 -40.2,-11.6 -50.3,-28.9 l -0.7,-1.2 c -4.6,-8.3 -7.2,-17.9 -7.2,-28.1 0,-0.7 0,-1.4 0,-2.1 0,-0.5 0,-2.4 0,-3.4 0,-1.2 0.1,-2.5 0.2,-3.7 0,-1.2 0.1,-2.1 0.2,-3.3 0.8,-8.2 2.8,-16.7 5.3,-24.6 3.8,-11.9 9.4,-23.1 16.4,-33.5 6.9,-10.2 15.2,-19.4 24.4,-27.5 4.4,-3.8 8.6,-7 12.1,-9.5 v 0 0 C 203,31.9 179.9,24.3 155,24.3 c -19.8,0 -37.9,4.1 -53.8,11.5 l -0.4,0.2 c -0.7,0.3 -1.4,0.7 -2.1,1 -2.7,1.3 -5.3,2.7 -7.8,4.2 v 0 c -1.3,0.7 -2.5,1.5 -3.7,2.3 l -0.5,0.5 -0.1,0.1 c -14,9 -25.9,20.9 -35.3,34.8 -4.2,6.2 -7.9,12.9 -11.1,19.8 v 0 c -2.2,4.9 -4.2,10 -6,15.3 l -0.1,0.3 -0.2,0.6 -0.2,0.7 -0.1,0.3 c -0.2,0.8 -0.5,1.6 -0.7,2.3 l -0.4,1.3 c -0.8,2.6 -1.4,5.3 -2.1,8 -0.3,1.3 -0.6,2.6 -0.8,3.8 l -0.2,1.1 c -0.2,1.2 -0.5,2.4 -0.7,3.6 l -0.1,0.5 -0.2,1.1 c -1.4,8.8 -2.2,17.9 -2.2,27.2 v 1 l 0.1,0.3 c 0.7,1.5 1.2,3 1.9,4.3"
               id="path26" />
            <path
               style="fill:#00463d"
               d="m 289.1,24.6 c -24.9,0 -47.9,7.6 -67.1,20.6 -3.6,2.5 -7.7,5.7 -12.1,9.5 -9.3,8.1 -17.5,17.3 -24.4,27.5 -7,10.3 -12.6,21.6 -16.4,33.5 -2.5,7.9 -4.5,16.3 -5.3,24.5 -0.1,1.2 -0.2,2.1 -0.2,3.3 0,1.2 -0.1,2.5 -0.2,3.7 0,1 0,2.9 0,3.4 0,0.7 0,1.4 0,2.1 0,10.2 2.6,19.8 7.2,28.1 l 0.7,1.2 c 10.1,17.3 28.9,28.9 50.3,28.9 23.5,0 43.7,-13.9 52.9,-33.9 3.4,-7.4 5.3,-15.6 5.3,-24.3 0,-32.2 -26.1,-58.3 -58.2,-58.3 -31.3,0 -56.9,24.8 -58.2,55.8 0,-0.3 0,-0.7 0,-1.2 0,-1.2 0.1,-2.3 0.2,-3.5 0.1,-1.1 0.2,-2.3 0.4,-3.4 0.1,-0.6 0.2,-1.3 0.3,-1.9 l 0.2,-1.2 0.2,-1.2 0.2,-1.2 0.3,-1.2 0.3,-1.2 0.1,-0.4 c 3.1,-12.9 8.9,-23.6 16.7,-31.8 17.4,-18.5 41,-24.7 64.3,-22.1 12.9,1.3 25.5,5.1 36.7,10.9 20.2,10.6 36.5,28.6 46.9,48.7 14.7,28.2 19,61.6 15.4,93.1 -3.7,32.2 -16.5,63.3 -35.7,89.3 -16.3,21.9 -37.2,40.4 -61,53.8 -0.7,0.4 -1.3,0.7 -2,1.1 -1.4,0.8 -2.8,1.5 -4.2,2.2 -1.3,0.7 -2.6,1.3 -3.9,2 -0.9,0.4 -1.8,0.9 -2.6,1.3 -2.4,1.1 -4.8,2.2 -7.2,3.2 l -0.6,0.3 c -2.1,0.9 -4.3,1.7 -6.5,2.5 l 0.7,-0.1 0.5,-0.1 0.3,-0.1 h 0.3 l 1,-0.2 h 0.2 l 1.2,-0.2 h 0.2 l 1.1,-0.2 h 0.2 l 1.2,-0.3 h 0.2 0.2 l 0.4,-0.1 0.7,-0.1 h 0.1 l 1.2,-0.3 h 0.1 0.1 0.1 l 1.1,-0.3 h 0.1 l 0.2,-0.1 1.2,-0.3 h 0.1 l 1.3,-0.4 0.3,-0.1 0.5,-0.2 0.6,-0.2 0.2,-0.1 v 0 h 0.1 0.1 l 0.2,-0.1 0.4,-0.1 0.5,-0.2 h 0.2 v 0 0 l 1.3,-0.4 v 0 l 0.5,-0.2 1,-0.4 v 0 l 0.3,-0.1 1,-0.3 v 0 l 0.2,-0.1 h 0.1 l 1,-0.4 0.5,-0.2 0.7,-0.2 c 0.5,-0.2 1.1,-0.4 1.6,-0.6 l 0.4,-0.2 0.2,-0.1 0.6,-0.2 0.8,-0.3 0.1,-0.1 1.3,-0.5 0.3,-0.1 0.1,-0.1 1.2,-0.5 h 0.1 0.1 l 1,-0.4 0.4,-0.2 v 0 0 0 l 0.3,-0.1 1.2,-0.5 0.1,-0.1 1.4,-0.6 0.1,-0.1 c 1.2,-0.5 2.3,-1.1 3.5,-1.6 l 0.2,-0.1 0.9,-0.4 h 0.1 v 0 c 1.2,-0.6 2.4,-1.2 3.7,-1.8 l 0.9,-0.5 v 0 l 0.7,-0.3 0.6,-0.3 0.7,-0.4 0.6,-0.3 1,-0.5 1.2,-0.6 v 0 l 0.1,-0.1 0.1,-0.1 0.2,-0.1 c 2.1,-1.2 4.2,-2.3 6.3,-3.6 v 0 l 0.3,-0.2 c 1.4,-0.8 2.8,-1.6 4.2,-2.5 l 0.3,-0.1 0.1,-0.1 v 0 l 0.3,-0.2 c 0.7,-0.5 1.5,-0.9 2.2,-1.4 l 0.6,-0.4 0.1,-0.1 0.5,-0.3 0.2,-0.1 c 1.4,-0.9 2.9,-1.8 4.3,-2.7 v 0 l 0.3,-0.2 1,-0.7 v 0 0 c 2.2,-1.5 4.4,-2.9 6.6,-4.5 h 0.1 c 1.2,-0.8 2.3,-1.6 3.5,-2.4 l 0.1,-0.1 0.1,-0.1 c 1,-0.7 2,-1.5 3.1,-2.2 v 0 l 0.2,-0.1 c 3.1,-2.3 6.3,-4.7 9.4,-7.2 v 0 0 c 6.5,-5.1 12.9,-10.6 19.1,-16.3 l 0.2,-0.2 v 0 c 45.4,-41.9 83.2,-99.6 83.2,-159.1 0.2,-78.2 -51,-141 -128.6,-141"
               id="path28" />
          </g>
        </g>
        <g
           id="g62" />
      </g>
    </g>
  </g>
</svg>
