<svg xmlns="http://www.w3.org/2000/svg" version="1" viewBox="-2.6 -2.6 134 86.1">
  <path d="m 131.4156,72.732723 c 0,5.945 -4.36125,10.76125 -9.745,10.76125 H 7.1630999 c -5.3825,0 -9.74625,-4.81625 -9.74625,-10.76125 V 8.1514694 c 0,-5.94125 4.36375,-10.7625 9.74625,-10.7625 H 121.6706 c 5.38375,0 9.745,4.82125 9.745,10.7625 z" fill="#009be0"/>
  <path d="M33.04648 15.430469c-3.47375 0-6.88375 3.41125-6.88375 6.885v9.255c0 3.47375 3.41 6.885 6.88375 6.885h16.14v-4.51375h-16.14c-2.28 0-2.36875-2.13125-2.37125-2.37375v-9.2525c.0025-.24.09125-2.37125 2.37125-2.37125h16.14v-4.51375zM33.04648 42.428849c-5.44375 0-6.88375 4.5025-6.88375 6.8825v.7125h4.505l.0075-.71c.0025-.2425.09125-2.37625 2.37125-2.37625h9.35125c1.8825 0 2.2775 1.2925 2.2775 2.37375 0 1.59625-.77625 2.3725-2.3725 2.3725h-9.16c-3.5875 0-6.98 3.41625-6.98 7.028754v6.7375h23.02375v-4.51H30.67523v-2.2275c.0025-.25625.08875-2.518754 2.37125-2.518754h9.25625c3.53875 0 6.88375-3.345 6.88375-6.8825 0-3.6675-3.195-6.8825-6.835-6.8825zM69.04498 15.430469h-9.25625c-3.475 0-6.88375 3.41125-6.88375 6.885v16.14h4.5125v-6.17h13.99875v6.17h4.5125v-16.14c0-3.47375-3.41-6.885-6.88375-6.885m2.37125 12.34125H57.41748v-5.45625c0-1.19875 1.175-2.37125 2.37125-2.37125h9.25625c1.24125 0 2.37125 1.13125 2.37125 2.37125zM59.78848 42.428849c-3.47375 0-6.88375 3.38375-6.88375 6.83375v9.352504c0 3.45 3.41 6.835 6.88375 6.835h16.14V51.683849H62.15973v4.46375h9.2575v4.792504H59.78848c-2.29 0-2.4125-2.05625-2.42-2.2925v-9.336254c.0025-.24.0925-2.37375 2.37375-2.37375h16.18625v-4.50875zM100.51472 27.049219c.8675-.8125 2.155-2.4 2.155-4.73375 0-3.47375-3.41-6.885-6.88375-6.885h-16.1375v23.025h4.51v-9.255h11.6275c2.28125 0 2.37 2.13125 2.3725 2.375v6.88h4.51125v-6.83875c0-2.355-1.27375-3.8225-2.155-4.5675m-4.82375-2.36125h-11.5325v-4.74375h11.6275c2.28125 0 2.37 2.13125 2.3725 2.37375-.01.215-.16625 2.37-2.4675 2.37M95.78573 42.428849h-9.255c-3.475 0-6.8825 3.40875-6.8825 6.8825v9.255004c0 3.47375 3.4075 6.88375 6.8825 6.88375h9.255c3.47375 0 6.88375-3.41 6.88375-6.88375v-9.255004c0-3.47375-3.41-6.8825-6.88375-6.8825m2.3725 16.137504c0 2.2825-2.13375 2.36875-2.37625 2.37375h-9.25125c-.24-.005-2.3725-.09125-2.3725-2.37375v-9.255004c0-2.28 2.1325-2.36875 2.37625-2.37375h9.25125c.23875.005 2.3725.09375 2.3725 2.37375z" fill="#fff"/>
</svg>
