<svg xmlns="http://www.w3.org/2000/svg" width="26906.25" height="26906.25" viewBox="0 0 7.1189451 7.1189451">
  <path d="M0 0v7.12h7.12V0zm.35.35h6.42v6.42H.35zm4.2 1.6c-.06-.02-.13 0-.2 0-.24.04-.43.16-.56.37-.1.16-.15.34-.13.53 0 .03 0 .06.02.1C3 2.9 2.43 2.6 2 2.08c-.1.17-.14.37-.1.58.06.2.17.37.35.5-.13 0-.25-.04-.37-.1 0 .16.04.3.12.44.12.2.3.32.53.37-.12.03-.24.03-.36 0 .07.26.34.56.76.58-.12.1-.25.17-.4.22-.25.1-.52.15-.8.12.4.26.85.37 1.32.36.16 0 .3-.02.46-.05.45-.1.83-.3 1.14-.63.18-.2.33-.4.44-.65.1-.23.18-.47.2-.73.03-.12.03-.24.03-.36 0 0 0-.02.02-.03.1-.08.2-.17.3-.28l.1-.12c-.16.06-.3.1-.47.12.17-.1.3-.26.35-.45-.16.1-.32.15-.5.2 0 0-.02 0-.03-.02-.15-.15-.33-.23-.52-.24z"/>
</svg>
