<svg width="47" height="50" viewBox="0 0 47 50" fill="none" xmlns="http://www.w3.org/2000/svg">
<path d="M43.5677 15.6181V4.73508H46.4317V0.868731H39.7014V11.4654H34.2598C32.971 11.0358 32.8278 8.45823 32.8278 8.45823V8.17183C34.403 7.59904 35.5486 6.02386 35.5486 4.16229C35.5486 1.87112 33.687 0.15274 31.5391 0.15274C29.2479 0.15274 27.5295 2.01432 27.5295 4.16229C27.5295 6.02386 28.6751 7.59904 30.2503 8.17183V8.45823C30.2503 8.45823 30.1071 11.0358 28.8183 11.4654H18.7944C17.5057 11.0358 17.2193 8.45823 17.2193 8.45823V8.17183C18.7944 7.59904 19.94 6.02386 19.94 4.16229C19.94 1.87112 18.0784 0.15274 15.9305 0.15274C13.6393 0.15274 11.9209 2.01432 11.9209 4.16229C11.9209 6.02386 13.0665 7.59904 14.6417 8.17183V8.45823C14.6417 8.45823 14.4985 11.0358 13.2097 11.4654H3.47224V22.2052H0.608276V26.0716H7.33859V15.4749H9.62976L13.4961 26.5012L5.47701 34.5203V45.6897H2.46985V49.5561H9.48656V36.3819L15.5009 30.3675L21.372 36.2387V45.8329H18.3648V49.6993H28.3887V45.8329H25.3815V36.2387L31.2527 30.3675L37.267 36.3819V49.5561H44.2837V45.6897H41.2765V34.5203L33.2574 26.5012L37.1238 15.4749H43.5677V15.6181ZM23.52 32.5155L17.5057 26.5012L21.372 15.4749H25.6679L29.5343 26.5012L23.52 32.5155Z" fill="white"/>
</svg>
