<svg xmlns="http://www.w3.org/2000/svg" viewBox="0 0 238.12499 185.20834">
  <path d="M78.53 4.5v27.78" fill="none" stroke="#15ff9d" stroke-width="1.32"/>
  <path d="M153.46 113.24v22.7m63.76 5.3h14.75" fill="none" stroke="#15ff9d" stroke-width="1.32" stroke-linejoin="round"/>
  <path fill="none" stroke="#343434" stroke-width="1.32" d="M152.67 135.73h64.9v11h-64.9z"/>
  <path d="M153.46 43.3v22.85m0-33.08V4.1m0 86.26h-18.52m18.52-6.22v11.9" fill="none" stroke="#15ff9d" stroke-width="1.32" stroke-linejoin="round"/>
  <path d="M152.14 38.36h22.13" fill="none" stroke="#343434" stroke-width="10.58" stroke-linejoin="round"/>
  <path d="M4 90.36h17.7" fill="none" stroke="#15ff9d" stroke-width="1.32"/>
  <path d="M78.53 148.7v31.5" fill="none" stroke="#15ff9d" stroke-width="1.32" stroke-linejoin="round"/>
  <path fill="none" stroke="#343434" stroke-width="1.33" d="M21.1 32.8h114.63v115.37H21.1z"/>
  <path d="M152.14 157.16h66.14" fill="none" stroke="#15ff9d" stroke-width="1.32" stroke-linejoin="round"/>
  <path d="M152.14 67.47h65.05m-65.1 3.7h65.04m-65.06 3.97h65.05M152.1 79.1h65.06m-65.06 3.98h29.1m-29.1 13.5h65.05m-65.06 3.7h65m-65.06 3.97h65.05m-65.06 3.95h65.05m-65.06 3.98h56.88" fill="none" stroke="#343434" stroke-width="2.65" stroke-linejoin="round"/>
  <path d="M221.3 134.14h6.6m-69-115.77h6.62m-6.85 36.66h6.62m-6.67 35.07h6.6m-6.68 34.5h6.6m16.7 39.18h6.6m-105.17.67h6.62m50.94-81.1h6.6M9.5 83.87h6.6M83.6 18.4h6.62M76.25 89.96h6.6" fill="none" stroke="#15ff9d" stroke-width="2.65" stroke-linejoin="round"/>
  <path d="M177.27 38.36h22.13" fill="none" stroke="#343434" stroke-width="10.58" stroke-linejoin="round"/>
  <path d="M87.67 89.96h22.13m-60.5 0h22.14" fill="none" stroke="#15ff9d" stroke-width="10.58" stroke-linejoin="round"/>
  <path d="M134.14 139.86v6.72h-6.92z" fill="#343434"/>
</svg>
