<svg xmlns="http://www.w3.org/2000/svg" viewBox="0 0 238.12 185.21">
  <g stroke-width=".94" stroke-miterlimit="4.04" fill="none">
    <path d="M44.84 31.42h61.76m-49.28 5.06h35.6M57.3 41.54h24.24M68.88 46.6h34.23m-34.2 5.07h22.88m-34.56 3.8h4.1M45 59.27h4.9" stroke="#15ff9d" stroke-width="2.65" stroke-opacity=".94"/>
    <path d="M31.6 13.46c-4.7 0-5.56.4-5.56 4.05v123s120.2.27 177.66.27c4.86 0 7.15-1.97 7.15-6.85V17.5c0-2.45-2.02-4.04-4.67-4.04z" stroke="#343434" stroke-width="1.32"/>
    <path d="M25.38 123.78h184.65" stroke="#343434" stroke-width=".66"/>
    <path d="M100.28 140.23c0 15.16 1.9 19.63-10.12 26.57h57.06c-12.06-6.96-10.25-9.9-10.25-26.57" stroke="#343434" stroke-width=".66" stroke-linejoin="round"/>
    <path d="M117.92 18.63v95.28" stroke="#343434" stroke-width=".66" stroke-linejoin="round" stroke-dashoffset="50"/>
  </g>
  <g stroke-width="1.32" stroke-miterlimit="4.04">
    <path d="M37.2 134.94H6.78l2.64 42.33h25.14z" fill="#fff" stroke="#343434"/>
    <path d="M37.2 146.84l10.54 1.22c4.02 15.98-1.46 20.1-12.08 23.78" fill="none" stroke="#343434" stroke-width=".66"/>
    <path d="M20.27 127.8c31.18-17.74-14.55-19.85 0-51.6" fill="#fff" stroke="#13ff9d" stroke-dasharray="10.58 1.32" stroke-opacity=".94"/>
  </g>
  <path d="M174.77 167s1.2-28.4-49.7-4.28" fill="none" stroke="#13ff9d" stroke-width=".66" stroke-linejoin="bevel" stroke-miterlimit="4.04" stroke-dashoffset="50" stroke-opacity=".94"/>
  <g stroke-width="1.32" stroke-miterlimit="4.04">
    <path d="M175.2 167s-1.2-28.4 49.7-4.28" fill="none" stroke="#13ff9d" stroke-width=".66" stroke-linejoin="bevel" stroke-dashoffset="50" stroke-opacity=".94"/>
    <path d="M227.7 170.66s-49.1-18.52-52.33-3.66c0 .07-.65 0-.65 0-1.42-14.86-52.36 3.9-52.36 3.9v7.8H227.7z" fill="#fff" stroke="#343434" stroke-linejoin="round" stroke-dashoffset="50"/>
    <path d="M175.02 167v8.36" fill="none" stroke="#343434" stroke-width=".66" stroke-linejoin="round" stroke-dashoffset="50"/>
    <path d="M25.06 86c12.1-19.32-9.56-8.85 0-34.4" fill="#fff" stroke="#14ff9d" stroke-linejoin="bevel" stroke-dasharray="10.58 1.32" stroke-opacity=".94"/>
  </g>
  <path d="M135.2 31.75h33.07m-21.17 6.6h13.24M147.1 43.4h19.86m-19.86 5.8h9.27m2.63 5.04h31.76M159 59.54h25.15M159 64.8h9.27M159 71.44h29.12m-41.02 5.3h3.98M147.1 82h31.76m-31.76 5.3h6.62m-18.52 5.04h3.97" fill="#fff" stroke="#14ff9d" stroke-width="2.65" stroke-linejoin="round" stroke-miterlimit="4.04" stroke-dashoffset="100" stroke-opacity=".94"/>
</svg>
