<svg xmlns="http://www.w3.org/2000/svg" viewBox="0 0 238.12501 185.20834">
  <g transform="translate(0 -514.792)">
    <g fill="#fff" stroke="#343434" stroke-width="10">
      <path stroke-width="1.32" d="M8.76 544.2h200.1v114.13H8.76z"/>
      <path stroke-width=".33" d="M27.47 671h147.95v2.64H27.47zm72.93-12.23h17.02v11.8h-17z"/>
    </g>
    <g transform="translate(.93)">
      <rect ry="0" y="572.32" x="16.88" height="59.27" width="29.87" fill="none" stroke="#15ff9d" stroke-width="1.36"/>
      <rect ry="0" y="572.67" x="168.94" height="59.27" width="29.87" fill="none" stroke="#15ff9d" stroke-width="1.36"/>
      <rect ry="0" y="572.32" x="54.83" height="59.27" width="29.87" fill="none" stroke="#15ff9d" stroke-width="1.36"/>
      <rect ry="0" y="572.5" x="91.59" height="59.27" width="29.87" fill="none" stroke="#15ff9d" stroke-width="1.36"/>
      <rect ry="0" y="572.5" x="130.6" height="59.27" width="29.87" fill="none" stroke="#15ff9d" stroke-width="1.36"/>
      <path d="M44.63 622.76v6.72H37.7z" fill="#15ff9d"/>
      <rect rx="0" ry="0" y="556.15" x="16.63" height="10.54" width="182.5" fill="none" stroke="#15ff9d" stroke-width="1.32"/>
      <path fill="none" stroke="#15ff9d" stroke-width="1.32" d="M21.32 561.3h7.73v.24h-7.73zm13.4 0h7.74v.24h-7.73zm14.48 0h7.72v.24H49.2z"/>
      <path d="M158.35 622.94v6.72h-6.92z" fill="#15ff9d"/>
    </g>
    <g transform="translate(45.796 1.95)" fill="#fff" stroke="#000">
      <rect width="48.38" height="73.29" x="136.85" y="614.16" ry="2.39" stroke-width="1.32"/>
      <circle cx="161.04" cy="684.15" r="1.86" stroke-width=".33"/>
    </g>
    <g fill="#fff" stroke="#343434">
      <path d="M44.43 623.67l85.15-.04c2.36 0 3.44.15 3.44 2.92l-.64 56.3-90.07-.13v-56.4c0-1.3.3-2.72 2.2-2.65z" stroke-width="1.32"/>
      <path d="M27.72 683.15l120.84.1-.05 3.4c0 1.56-5.8 1.84-5.8 1.84l-111.4-.1c-1.4-.2-2.8-.86-3.5-1.96z" stroke-width=".33" stroke-linejoin="bevel" stroke-dashoffset="6"/>
    </g>
    <rect ry="0" y="639.57" x="47.84" height="29.85" width="16.6" fill="none" stroke="#15ff9d" stroke-width="1.32"/>
    <rect ry="0" y="639.57" x="69.46" height="29.85" width="16.6" fill="none" stroke="#15ff9d" stroke-width="1.32"/>
    <rect ry="0" y="639.66" x="90.42" height="29.85" width="16.6" fill="none" stroke="#15ff9d" stroke-width="1.32"/>
    <rect ry="0" y="639.66" x="111.05" height="29.85" width="16.6" fill="none" stroke="#15ff9d" stroke-width="1.32"/>
    <path d="M104.9 660.67v6.72H98zm20.63 0v6.72h-6.92zm-41.58-.1v6.73h-6.92zm-21.63 0v6.73H55.4z" fill="#15ff9d"/>
    <g transform="translate(-85.67 622.167) scale(.24996)" fill="#fff">
      <rect ry="11.42" y="74.78" x="453.78" height="188.99" width="86.93" stroke="#343434" stroke-width="5.29" stroke-linejoin="bevel" stroke-dashoffset="6"/>
      <circle r="7.45" cy="251.07" cx="497.7" stroke="#000" stroke-width="1.32"/>
    </g>
    <g transform="translate(35.055 479.354) scale(.24996)" fill="#fff" stroke="#000">
      <rect rx="8.93" ry="8.93" y="214.68" x="545.82" height="51.64" width="61.97" stroke-width="5.29"/>
      <path d="M525.56 225.46c19.4 0 19.08-5.95 19.08-5.95v41.4s.6-2.84-18.56-2.84c-2.46-9.17-2.97-23.4-.52-32.53z" stroke-width="1.32"/>
    </g>
    <path d="M192.15 535.82c-4.86 0-4.77-1.5-4.77-1.5v10.34s-.15-.7 4.64-.7c.6-2.3.74-5.86.13-8.14z" fill="#fff" stroke="#000" stroke-width=".33"/>
    <path fill="#15ff9d" d="M278.3 590h.2v.84h-.2z"/>
    <rect ry="0" y="535.36" x="175" height="8.21" width="8.47" fill="none" stroke="#15ff9d" stroke-width="1.32"/>
    <path d="M181.88 537.13V542h-5z" fill="#15ff9d"/>
    <path fill="none" stroke="#15ff9d" stroke-width="1.32" d="M50.56 632.26h3.62v.1h-3.62zm7.4 0h3.63v.1h-3.7zm7.42 0H69v.1h-3.62z"/>
    <path fill="none" stroke="#15ff9d" stroke-width="1.3" d="M30.7 649.36h2.78v.14H30.7z"/>
    <rect ry="0" y="653.2" x="30.79" height="10.64" width="15.67" fill="none" stroke="#15ff9d" stroke-width="1.32"/>
    <rect rx="0" ry="0" y="629.17" x="47.8" height="6.29" width="80.05" fill="none" stroke="#15ff9d" stroke-width="1.32"/>
    <rect ry="0" y="666.95" x="30.79" height="10.64" width="15.67" fill="none" stroke="#15ff9d" stroke-width="1.32"/>
    <path d="M44.27 655v6.73h-6.92zm0 13.76v6.72h-6.92z" fill="#15ff9d"/>
    <path fill="none" stroke="#15ff9d" stroke-width="1.3" d="M37.23 649.36H40v.14h-2.77zm6.35-.14h2.77v.14h-2.77zm162-25.46h2.77v.14h-2.77z"/>
    <rect ry="0" y="631.69" x="188.63" height="29.85" width="16.6" fill="none" stroke="#15ff9d" stroke-width="1.32"/>
    <path d="M203.64 653.23v6.72h-6.92z" fill="#15ff9d"/>
    <path fill="none" stroke="#15ff9d" stroke-width="1.3" d="M216.17 623.76h2.77v.14h-2.77zm-21.17 0h2.77v.14H195z"/>
    <rect ry="0" y="631.69" x="209.36" height="13.34" width="17.03" fill="none" stroke="#15ff9d" stroke-width="1.32"/>
    <rect ry="0" y="648.09" x="209.36" height="13.34" width="17.03" fill="none" stroke="#15ff9d" stroke-width="1.32"/>
    <rect ry="0" y="665.23" x="188.61" height="12.74" width="37.74" fill="none" stroke="#15ff9d" stroke-width="1.33"/>
  </g>
</svg>
