<svg width="79" height="60" viewBox="0 0 79 60" fill="none" xmlns="http://www.w3.org/2000/svg">
<g clip-path="url(#clip0_102_142)">
<path d="M73.2582 58.4742C72.6519 58.4771 72.0529 58.3422 71.5069 58.0799C70.9608 57.8176 70.4821 57.4347 70.1072 56.9605L44.5414 24.0934L55.8233 13.2696C58.7718 10.4555 61.7743 7.69796 64.829 4.99847C67.7017 2.46567 72.1648 1.43672 76.0116 1.43672C76.0513 1.43672 76.0116 0.0515898 76.0116 0.0515898H53.9745V1.35757L57.374 1.41693C58.5867 1.42682 59.7894 1.50597 60.9822 1.71374C61.8867 1.85225 62.3937 2.90099 61.9265 3.69249C61.0562 5.23597 59.9869 6.65955 58.7457 7.92702C53.0799 13.6654 38.6668 27.4573 37.0267 29.0205C36.9969 26.1909 37.0267 1.39714 37.0267 1.39714H45.595V0.00212097H20.6256V1.39714H28.2198L28.2397 58.4248H20.3473V59.9781C20.3473 59.9583 45.4956 59.9781 45.4956 59.9781V58.4742H36.9671V31.5137L38.0406 30.6233L39.8298 32.8395L59.4415 58.4445H51.7181V59.9979H78.2679V58.4841H73.2582V58.4742Z" fill="white"/>
<path d="M20.4566 14.8625C19.1844 13.8998 17.7099 13.2359 16.1434 12.9207C14.577 12.6054 12.9592 12.6469 11.4112 13.0421C8.71264 13.757 6.29634 15.2718 4.48294 17.3855C2.32514 19.9159 0.880082 22.9706 0.295108 26.2381C-0.289865 29.5057 0.00616905 32.8692 1.15303 35.9857C2.63409 39.8839 5.40737 43.4654 9.33369 45.1374C10.9197 45.8089 12.6203 46.1716 14.3435 46.206C14.576 46.2088 14.8085 46.1956 15.0393 46.1664C17.2499 45.8842 19.3385 44.9971 21.0729 43.6039C21.709 43.0894 22.5937 42.4068 23.4287 42.9509C24.035 43.3467 24.2537 44.8802 24.2537 44.8901H25.0787V34.195H24.2537L24.1941 35.5504C24.1096 36.7657 23.7853 37.9524 23.2398 39.0429L22.6434 40.1411C20.6554 43.7523 16.1824 46.3544 12.0175 45.0484C10.9662 44.7128 10.0005 44.1543 9.18712 43.4112C8.3737 42.6682 7.73188 41.7584 7.30592 40.7446C5.16881 35.6394 4.85072 29.9406 5.61611 24.5189C5.82403 23.0508 6.1228 21.597 6.51071 20.1656C7.12986 17.8631 8.58107 15.869 10.5861 14.5657C10.9639 14.3184 11.3813 14.1304 11.8088 13.9919C13.5449 13.4325 15.4111 13.4132 17.1586 13.9364C18.906 14.4596 20.4518 15.5005 21.5898 16.9205C22.9724 18.681 23.8761 20.7663 24.2139 22.9754L24.363 23.9054H25.1284V14.2096H24.2338L24.2239 14.7834C24.1941 15.7431 23.1504 16.0696 22.3253 15.9212C21.5898 15.8025 21.0331 15.3078 20.4566 14.8625ZM77.4926 0.12085V0.269256H77.095V1.38725H76.9459V0.269256H76.5582V0.12085H77.4926ZM77.8007 0.12085H78.0294L78.3574 1.18938L78.6854 0.12085H78.9041V1.38725H78.755V0.318725L78.427 1.38725H78.2779L77.9498 0.318725V1.38725H77.8007V0.12085Z" fill="white"/>
</g>
<defs>
<clipPath id="clip0_102_142">
<rect width="78.9041" height="60" fill="white"/>
</clipPath>
</defs>
</svg>
