<svg xmlns="http://www.w3.org/2000/svg" width="300.01" height="229.2" viewBox="0 0 79.38 60.64">
  <path d="M73.7 59.1a4.01 4.01 0 0 1-3.17-1.53L44.81 24.35l11.35-10.94a321.35 321.35 0 0 1 9.06-8.36c2.89-2.56 7.38-3.6 11.25-3.6.04 0 0-1.4 0-1.4H54.3v1.32l3.42.06c1.22.01 2.43.09 3.63.3.91.14 1.42 1.2.95 2a20.52 20.52 0 0 1-3.2 4.28c-5.7 5.8-20.2 19.74-21.85 21.32-.03-2.86 0-27.92 0-27.92h8.62V0H20.75v1.41h7.64l.02 57.64h-7.94v1.57c0-.02 25.3 0 25.3 0V59.1h-8.58V31.85l1.08-.9 1.8 2.24L59.8 59.07h-7.77v1.57h26.71v-1.53H73.7z"/>
  <path d="M20.58 15.02a10.66 10.66 0 0 0-9.1-1.84 13.85 13.85 0 0 0-6.97 4.39 18.97 18.97 0 0 0-3.35 18.8c1.49 3.94 4.28 7.56 8.23 9.25a13.57 13.57 0 0 0 5.04 1.08 5.07 5.07 0 0 0 .7-.04 12.12 12.12 0 0 0 6.07-2.59c.64-.52 1.53-1.21 2.37-.66.61.4.83 1.95.83 1.96h.83V34.56h-.83l-.06 1.37a9.37 9.37 0 0 1-.96 3.53l-.6 1.11c-2 3.65-6.5 6.28-10.69 4.96a7.68 7.68 0 0 1-4.74-4.35c-2.15-5.16-2.47-10.92-1.7-16.4a36.41 36.41 0 0 1 .9-4.4 9.78 9.78 0 0 1 4.1-5.66c.38-.25.8-.44 1.23-.58a9.03 9.03 0 0 1 9.84 2.96 13.15 13.15 0 0 1 2.64 6.12l.15.94h.77v-9.8h-.9l-.01.58c-.03.97-1.08 1.3-1.91 1.15-.74-.12-1.3-.62-1.88-1.07ZM77.96.12v.15h-.4V1.4h-.15V.27h-.39V.12Zm.31 0h.23l.33 1.08.33-1.08h.22V1.4h-.15V.32L78.9 1.4h-.15L78.42.32V1.4h-.15z"/>
</svg>
