<svg xmlns="http://www.w3.org/2000/svg" viewBox="0 0 10.98 10.98" height="41.51" width="41.51" fill="#ffa200">
  <path d="M5.5 0h-.15A5.39 5.39 0 0 0 0 5.5v.13a5.39 5.39 0 0 0 5.5 5.35h.13a5.35 5.35 0 0 0 5.35-5.49v-.14A5.52 5.52 0 0 0 5.5 0Zm0 10.5h-.15a4.97 4.97 0 0 1-4.87-5v-.15A4.88 4.88 0 0 1 5.5.48h.14a4.92 4.92 0 0 1 4.87 5.01v.14a5.01 5.01 0 0 1-5 4.87z"/>
  <path d="M4.33 4.19c-.28.61.61 1.37.61 1.37l-1.71-1.1.55-.14v-.48H1.17l7.55 4.94v-.75l-.69-.41C6.53 6.59 4.94 5 5.08 4.6c.07-.07.14-.07.2-.07h2.68L6.52 5.9l.34.35 2.89-2.27h-4.8c-.21-.14-.49 0-.62.2z"/>
</svg>
