<svg width="72" height="60" viewBox="0 0 72 60" fill="none" xmlns="http://www.w3.org/2000/svg">
<path d="M36.9004 59.522C37.3369 59.3572 37.7734 59.1758 38.2099 58.9945C38.3736 58.9286 38.519 58.8462 38.6827 58.7802C38.9191 58.6813 39.1556 58.566 39.392 58.4506C39.6466 58.3352 39.9012 58.2033 40.1558 58.0879C40.2831 58.022 40.3922 57.9725 40.5196 57.9066C44.8479 55.6978 48.6489 52.6484 51.6133 49.0385C55.1051 44.7528 57.433 39.6264 58.1059 34.3187C58.7606 29.1264 57.9604 23.6374 55.3051 18.9725C53.3956 15.6593 50.4494 12.6923 46.7757 10.9451C44.7388 9.98902 42.4473 9.34616 40.1013 9.14836C35.8456 8.71979 31.5718 9.74177 28.4074 12.7912C27.007 14.1429 25.934 15.9066 25.3702 18.033L25.352 18.0989L25.2975 18.2967L25.2429 18.4945L25.1884 18.6923L25.152 18.8901L25.1156 19.0879C25.0974 19.1868 25.0793 19.2857 25.0611 19.4011C25.0429 19.5824 25.0065 19.7802 24.9883 19.9615C24.9701 20.1594 24.9701 20.3407 24.9519 20.5385C24.9519 20.6209 24.9519 20.6868 24.9519 20.7363C25.1884 15.6264 29.8259 11.5385 35.5365 11.5385C41.3925 11.5385 46.121 15.8407 46.121 21.1484C46.121 22.5824 45.7754 23.9341 45.1571 25.1539L45.0844 25.3681C42.9747 30.6099 37.8643 35.7363 31.6446 37.9121C29.5531 38.6374 27.3526 39.0495 25.0793 39.0495C24.6791 39.0495 24.279 39.033 23.8608 39.0165C23.6789 39.0165 23.497 39 23.3152 38.9835C23.006 38.967 22.6968 38.9341 22.4058 38.9011C22.1694 38.8846 21.933 38.8517 21.7148 38.8187C21.442 38.7857 21.1873 38.7363 20.9145 38.7033C20.7691 38.6703 20.6054 38.6539 20.4417 38.6209C20.0234 38.5385 19.6051 38.4561 19.1868 38.3572L19.0232 38.3077C13.2035 36.8736 7.71118 33.478 3.87384 29.1758C3.78291 29.0934 3.71016 28.9945 3.63742 28.8956C3.51011 28.7473 3.38281 28.6154 3.27369 28.467C3.16457 28.3352 3.03726 28.1868 2.92815 28.0385C2.83721 27.9231 2.74628 27.8077 2.65535 27.6923C2.54623 27.5605 2.43711 27.4121 2.34618 27.2802C2.23706 27.1319 2.12794 26.967 2.01882 26.8187C1.94608 26.7198 1.87333 26.6209 1.80059 26.522C1.65509 26.2912 1.49142 26.0605 1.34592 25.8297L1.25499 25.6813L1.23681 25.6648C1.18225 25.5659 1.1095 25.4506 1.05494 25.3517C0.927635 25.1374 0.818517 24.9396 0.691212 24.7253C0.600279 24.5605 0.509347 24.3956 0.418415 24.2308L0.363855 24.1154C0.254737 23.8846 0.145618 23.6539 0.0546855 23.4231L0.036499 23.3736C0.163804 41.3077 23.2424 58.2033 35.6092 59.9835C36.0093 59.8517 36.3912 59.7033 36.7913 59.5714L36.9004 59.522Z" fill="#C9C9C9"/>
<path d="M0.363729 24.0824L0.418288 24.1978C0.509221 24.3626 0.600153 24.5275 0.691085 24.6923C0.800204 24.9066 0.927509 25.1044 1.05481 25.3187C1.10937 25.4176 1.18212 25.533 1.23668 25.6319L1.25487 25.6484L1.3458 25.7967C1.49129 26.0275 1.63678 26.2582 1.80046 26.489C1.8732 26.5879 1.94595 26.6868 2.0187 26.7857C2.12782 26.9341 2.23693 27.0989 2.34605 27.2473C2.45517 27.3956 2.5461 27.5275 2.65522 27.6593C2.74615 27.7747 2.83709 27.8901 2.92802 28.0055C3.03714 28.1538 3.16444 28.2857 3.27356 28.4341C3.40087 28.5824 3.52817 28.7143 3.63729 28.8626C3.71004 28.9615 3.80097 29.044 3.87371 29.1429C7.71106 33.4286 13.2034 36.8242 19.023 38.2747L19.1867 38.3242C19.605 38.4231 20.0233 38.5055 20.4416 38.5879C20.6053 38.6209 20.7507 38.6374 20.9144 38.6703C21.1872 38.7198 21.4418 38.7528 21.7146 38.7857C21.9511 38.8187 22.1693 38.8517 22.4057 38.8681C22.7149 38.9011 23.0241 38.9341 23.315 38.9506C23.4969 38.967 23.6788 38.967 23.8606 38.9835C24.2607 39 24.679 39.0165 25.0791 39.0165C27.3524 39 29.553 38.5879 31.6444 37.8791C37.8824 35.7033 42.9928 30.5769 45.0842 25.3352L45.1752 25.1209C43.502 28.4176 39.8102 30.7253 35.5545 30.7253C31.6444 30.7253 28.2436 28.8132 26.4067 25.9615L26.2794 25.7637C25.4429 24.3956 24.97 22.8132 24.97 21.1319C24.97 21.0165 24.97 20.9011 24.97 20.7857C24.97 20.7033 24.97 20.3901 24.97 20.2253C24.97 20.0275 24.9882 19.8132 25.0064 19.6154C25.0064 19.4176 25.0246 19.2692 25.0427 19.0714C25.1882 17.7198 25.552 16.3187 26.0066 15.0165C26.6977 13.0549 27.7162 11.2088 28.9892 9.49451C30.2441 7.81319 31.7536 6.2967 33.4267 4.96154C34.2269 4.33517 34.9907 3.80769 35.6273 3.3956C32.1537 1.25275 27.9526 1.83118e-09 23.4242 1.53452e-09C19.8232 1.29863e-09 16.5315 0.675824 13.6398 1.8956L13.5671 1.92857C13.4398 1.97802 13.3125 2.04396 13.1852 2.09341C12.6941 2.30769 12.2213 2.53846 11.7666 2.78571C11.5302 2.9011 11.312 3.03297 11.0937 3.16484L11.0028 3.24725L10.9846 3.26374C8.43851 4.74725 6.27433 6.70879 4.5648 9C3.80097 10.022 3.12807 11.1264 2.5461 12.2637C2.146 13.0714 1.78227 13.9121 1.45492 14.7857L1.43673 14.8352L1.40036 14.9341L1.36398 15.0495L1.3458 15.0989C1.30942 15.2308 1.25487 15.3626 1.21849 15.478L1.14575 15.6923C1.00025 16.1209 0.891136 16.5659 0.763831 17.011C0.709272 17.2253 0.654712 17.4396 0.618339 17.6374L0.581966 17.8187C0.545593 18.0165 0.491034 18.2143 0.454661 18.4121L0.436475 18.4945L0.400102 18.6758C0.145491 20.1264 -1.41675e-09 21.6264 -1.51717e-09 23.1593L-1.52797e-09 23.3242L0.0181862 23.3736C0.145491 23.6209 0.236424 23.8681 0.363729 24.0824Z" fill="white"/>
<path d="M47.8122 0.0494385C43.2837 0.0494385 39.1008 1.30219 35.609 3.44504C34.9543 3.85713 34.2087 4.3846 33.4085 5.01098C31.7171 6.34614 30.2259 7.86263 28.971 9.54394C27.6979 11.2417 26.6795 13.1044 25.9884 15.0659C25.5338 16.3681 25.17 17.7527 25.0245 19.1044C25.0063 19.3022 24.9882 19.4505 24.9882 19.6483C24.9882 19.8461 24.97 20.0604 24.9518 20.2582C24.9518 20.4231 24.9518 20.7363 24.9518 20.8187C24.9518 20.9341 24.9518 21.0494 24.9518 21.1648C24.9518 22.8461 25.4246 24.4286 26.2612 25.7967L26.3885 25.9945C28.2253 28.8461 31.6444 30.7582 35.5363 30.7582C39.8101 30.7582 43.4838 28.467 45.1569 25.1703C45.7753 23.9505 46.1208 22.5989 46.1208 21.1648C46.1208 15.8571 41.3742 11.5549 35.5363 11.5549C29.8439 11.5549 25.1882 15.6428 24.9518 20.7527C24.9518 20.7033 24.9518 20.6374 24.9518 20.5549C24.9518 20.3571 24.97 20.1758 24.9882 19.978C25.0063 19.7967 25.0245 19.5989 25.0609 19.4176C25.0791 19.3187 25.0973 19.2033 25.1155 19.1044L25.1518 18.9066L25.1882 18.7088L25.2246 18.511L25.2791 18.3132L25.3337 18.1154L25.3519 18.0494C25.9157 15.9231 26.9705 14.1593 28.389 12.8077C31.5535 9.75823 35.8455 8.73625 40.0829 9.16482C42.429 9.37911 44.7205 10.0055 46.7573 10.9615C50.431 12.7088 53.3954 15.6758 55.2868 18.989C57.9602 23.6374 58.7422 29.1428 58.0875 34.3352C57.4146 39.6428 55.0867 44.7692 51.5949 49.0549C48.6305 52.6648 44.8296 55.7143 40.5012 57.9231C40.3739 57.989 40.2648 58.0384 40.1375 58.1044C39.8829 58.2363 39.6283 58.3516 39.3736 58.467C39.1372 58.5824 38.9008 58.6813 38.6644 58.7967C38.5007 58.8626 38.337 58.945 38.1915 59.011C37.755 59.1923 37.3186 59.3736 36.8821 59.5385L36.773 59.5879C36.3911 59.7363 35.991 59.8681 35.5909 60L35.7182 59.9835L35.8091 59.967L35.8637 59.9505L35.9182 59.9505L36.1001 59.9176L36.1365 59.9176L36.3547 59.8846L36.3911 59.8846L36.5911 59.8516L36.6275 59.8516L36.8457 59.8022L36.8821 59.8022L36.9185 59.8022L36.9912 59.7857L37.1185 59.7692L37.1367 59.7692L37.3549 59.7198L37.3731 59.7198L37.3913 59.7198L37.4095 59.7198L37.6096 59.6703L37.6277 59.6703L37.6641 59.6538L37.8824 59.6044L37.9005 59.6044L38.137 59.5385L38.1915 59.522L38.2825 59.489L38.3916 59.456L38.4279 59.4395L38.4461 59.4395L38.4643 59.4395L38.5007 59.4231L38.5734 59.4066L38.6644 59.3736L38.7007 59.3736L38.9372 59.3077L39.0281 59.2747L39.21 59.2088L39.2645 59.1923L39.4464 59.1428L39.4828 59.1264L39.5009 59.1264L39.6828 59.0604L39.7737 59.0275L39.901 58.9945C39.992 58.9615 40.1011 58.9286 40.192 58.8956L40.2648 58.8626L40.3012 58.8461L40.4103 58.8132L40.5558 58.7637L40.5739 58.7472L40.8104 58.6648L40.8649 58.6483L40.8831 58.6319L41.1014 58.5494L41.1195 58.5494L41.1377 58.5494L41.3196 58.4835L41.3923 58.4505L41.4469 58.4341L41.6651 58.3516L41.6833 58.3352L41.9379 58.2363L41.9561 58.2198C42.1744 58.1374 42.3744 58.0384 42.5926 57.956L42.629 57.9395L42.7927 57.8736L42.8109 57.8736C43.0291 57.7747 43.2474 57.6758 43.4838 57.5769L43.6475 57.4945L43.7748 57.445L43.8839 57.3956L44.0112 57.3297L44.1203 57.2802L44.3022 57.1978L44.5204 57.0989L44.5386 57.0824L44.5568 57.0659L44.5932 57.0494C44.9751 56.8516 45.357 56.6703 45.7389 56.456L45.7935 56.4231C46.0481 56.2912 46.3027 56.1593 46.5573 56.011L46.6119 55.9945L46.63 55.978L46.6846 55.945C46.8119 55.8626 46.9574 55.7967 47.0847 55.7143L47.1938 55.6483L47.212 55.6319L47.3029 55.5824L47.3393 55.5659C47.5939 55.4176 47.8667 55.2692 48.1213 55.1209L48.1759 55.0879L48.3578 54.9725C48.7579 54.7253 49.158 54.4945 49.5581 54.2308L49.5762 54.2308C49.7945 54.0989 49.9945 53.967 50.2128 53.8352L50.231 53.8187L50.2491 53.8022C50.431 53.6868 50.6129 53.5549 50.8129 53.4395L50.8493 53.4231C51.4131 53.0439 51.995 52.6483 52.5588 52.2363C53.7409 51.3956 54.9049 50.489 56.0324 49.5494L56.0688 49.5165C64.3255 42.6099 71.1999 33.0989 71.1999 23.2912C71.2363 10.4011 61.9248 0.0494385 47.8122 0.0494385Z" fill="#696969"/>
</svg>
