<svg xmlns="http://www.w3.org/2000/svg" width="50" height="50" viewBox="0 0 7.1189451 7.1189451">
    <path d="M3.54 1.43c-1.13 0-2.04.92-2.04 2.05 0 .9.6 1.67 1.4 1.94.1.02.14-.05.14-.1v-.38c-.57.12-.7-.24-.7-.24-.1-.24-.22-.3-.22-.3-.2-.13 0-.13 0-.13.22.02.33.2.33.2.18.33.47.24.6.18 0-.13.06-.22.12-.27-.45-.05-.93-.23-.93-1 0-.23.08-.4.2-.56 0-.05-.08-.26.03-.54 0 0 .17-.05.56.2.16-.03.34-.06.5-.06.2 0 .36.03.53.07.4-.27.56-.22.56-.22.1.28.04.5.02.54.13.15.2.33.2.55 0 .8-.47.96-.93 1 .1.07.15.2.15.4v.55c0 .05.04.12.14.1.8-.27 1.4-1.04 1.4-1.94 0-1.13-.93-2.05-2.06-2.05z"/>
    <path d="M0 0v7.12h7.12V0zm.35.35h6.42v6.42H.35z"/>
</svg>
