<svg width="60" height="60" viewBox="0 0 60 60" fill="none" xmlns="http://www.w3.org/2000/svg">
<path fill-rule="evenodd" clip-rule="evenodd" d="M17.0296 1.11562e-09L13.5596 8.63043L12.7411 9.10194C9.635 11.037 3.18929 16.024 0.855871 25.4878C0.0778093 28.6217 -2.05594e-09 31.3835 -2.12926e-09 32.5026C-2.91096e-09 44.4351 6.83627 54.0334 18.5774 58.0577C23.8003 59.8501 28.3222 60 30.4298 60C47.3214 60 59.5172 48.4579 59.5172 32.2753C59.5172 28.8351 58.971 26.0719 58.6621 24.8898C56.3332 16.3317 49.886 11.3418 47.3222 9.70357L45.4373 8.56245L48.8753 3.20183e-09L35.5384 2.32813e-09L33.552 4.93951C32.1996 4.81377 30.8479 4.74579 29.4885 4.77868L28.4557 4.78307L30.3673 1.98937e-09L17.0296 1.11562e-09ZM25.2425 22.7169C27.2246 21.7691 28.9568 21.6901 29.7828 21.6901C34.249 21.6105 37.8785 24.1391 39.4419 28.0745C39.7827 28.8075 40.2656 30.2917 40.2656 32.4681C40.2656 38.5776 36.3274 41.4197 34.1665 42.3734C33.3168 42.7798 31.9116 43.2467 29.7079 43.2467C23.3223 43.2467 19.4681 38.3109 19.3871 32.6223C19.3871 26.6764 23.0808 23.751 25.2425 22.7169Z" fill="white"/>
</svg>
