<svg width="60" height="60" viewBox="0 0 60 60" fill="none" xmlns="http://www.w3.org/2000/svg">
<g clip-path="url(#clip0_102_176)">
<path d="M30.2115 47.1328C33.7367 43.0082 37.5793 37.4031 36.6276 32.7849C36.5059 31.1244 35.7604 29.5714 34.5407 28.4379C33.3212 27.3045 31.7179 26.6745 30.0529 26.6745C28.3879 26.6745 26.7846 27.3045 25.5651 28.4379C24.3454 29.5714 23.5999 31.1244 23.4782 32.7849C22.5264 37.4031 26.1926 43.0082 29.8942 47.1328C24.2983 47.0908 18.9473 44.8331 15.0125 40.8538C11.0779 36.8747 8.88045 31.4985 8.90143 25.9026C8.92241 20.3064 11.1601 14.9469 15.1245 10.9974C19.0888 7.04783 24.4569 4.83022 30.0529 4.83022C35.6488 4.83022 41.0168 7.04783 44.9813 10.9974C48.9456 14.9469 51.1834 20.3064 51.2044 25.9026C51.2254 31.4985 49.0279 36.8747 45.0932 40.8538C41.1585 44.8331 35.8074 47.0908 30.2115 47.1328ZM30.0353 2.06977e-05C24.0988 -0.00695106 18.2938 1.74748 13.3549 5.04124C8.41601 8.33499 4.56536 13.02 2.29037 18.5032C0.0153764 23.9865 -0.581694 30.0214 0.574738 35.844C1.73117 41.6668 4.58912 47.0154 8.78681 51.2132C12.9845 55.4109 18.3332 58.2688 24.156 59.4253C29.9786 60.5816 36.0135 59.9846 41.4967 57.7097C46.98 55.4346 51.6651 51.5841 54.9587 46.6451C58.2525 41.7062 60.0069 35.9012 60 29.9648C59.9906 22.0206 56.8307 14.4043 51.2132 8.78679C45.5957 3.16933 37.9794 0.00935046 30.0353 2.06977e-05Z" fill="white"/>
</g>
<defs>
<clipPath id="clip0_102_176">
<rect width="60" height="60" fill="white"/>
</clipPath>
</defs>
</svg>
