<svg xmlns="http://www.w3.org/2000/svg" width="26906.25" height="26906.25" viewBox="0 0 7.1189451 7.1189451">
        <path d="M0 0v7.12h7.12V0zm.35.35h6.42v6.42H.35z"/>
        <path d="M1.55 3.6h-.02l-.03.3.03.27s0 .02.02.02v-.03l.05-.28-.04-.3zm.17-.16v-.02c-.02 0-.03 0-.03.02l-.05.45.04.44v.02c.02 0 .02 0 .02-.02l.05-.45zm.67-.42c-.03 0-.04.02-.04.04l-.03.83.03.53c0 .02 0 .04.03.04l.02-.04.04-.54-.04-.84c0-.02 0-.04-.03-.04zm-.35.3c-.02 0-.03 0-.03.02l-.04.55.04.53s0 .03.03.03l.02-.03.04-.54-.03-.56c0-.02 0-.03-.02-.03zm.7 1.15s.03-.02.03-.05l.04-.53-.04-1.12c0-.02-.02-.04-.04-.04s-.04.02-.04.04l-.03 1.1.03.54c0 .03.02.05.04.05zm.7 0c.04 0 .06-.03.07-.06l.02-.5-.02-1.3c0-.03-.03-.05-.06-.05s-.05.02-.05.06v1.8c0 .04.03.07.06.07zm-.35 0c.02 0 .05-.02.05-.05l.02-.53-.02-1.13c0-.03-.03-.05-.05-.05-.03 0-.05.02-.05.05L3.03 3.9l.02.52c0 .03.02.05.05.05zm-.88 0s.03-.02.03-.04l.04-.54-.05-.52c0-.02-.02-.03-.03-.03-.02 0-.03 0-.03.03l-.05.5.04.55c0 .02 0 .04.02.04zm-.34-.03s.02 0 .02-.03l.04-.5-.04-.55s0-.02-.02-.02-.02 0-.03.02l-.04.54.05.5c0 .03 0 .04.03.04zm1.4-1.68c-.03 0-.05.02-.05.05L3.2 3.9l.03.5c0 .05.02.07.05.07.03 0 .05-.02.05-.06l.03-.5-.03-1.1c0-.02-.02-.04-.05-.04zm-.7 1.7s.02 0 .02-.03l.04-.54-.04-1.03c0-.03 0-.04-.03-.04-.02 0-.04 0-.04.04L2.5 3.9l.03.53c0 .02.02.04.04.04zm.38-.04L3 3.9l-.04-1.16c0-.02-.02-.05-.04-.05s-.04.02-.04.04L2.85 3.9l.03.52c0 .03.02.05.04.05s.04-.02.04-.05zm2.32-1.2c-.08 0-.15.03-.2.06-.05-.56-.45-1-.94-1-.12 0-.24.03-.34.07-.04.02-.05.04-.05.08V4.4c0 .04.03.07.06.07h1.47c.3 0 .53-.27.53-.62 0-.34-.23-.62-.52-.62zm-1.64-.8c-.03 0-.06.04-.06.07l-.02 1.4.02.5c0 .04.03.07.06.07s.06-.03.06-.07l.03-.5-.03-1.4c0-.04-.03-.07-.06-.07z"/>
</svg>
