<svg width="61" height="60" viewBox="0 0 61 60" fill="none" xmlns="http://www.w3.org/2000/svg">
<path d="M60.5687 3.69669C60.2844 3.12797 60 2.8436 59.4313 2.55924L58.2938 1.4218C57.7251 0.853081 57.1564 0.568721 57.1564 0.284361C56.5877 1.07288e-06 56.019 0 55.4502 0H2.8436C1.13744 0 0 1.13744 0 2.8436V57.1564C0 58.8626 1.13744 60 2.8436 60H11.09C11.9431 60 12.2275 60 12.7962 59.7156C13.3649 59.4313 13.6493 59.1469 13.9336 58.5782L59.4313 13.0806C60 12.5118 60.2844 11.9431 60.5687 11.9431C60.8531 11.3744 60.8531 10.8057 60.8531 10.237V5.6872C60.8531 4.54976 60.8531 3.98105 60.5687 3.69669Z" fill="#1c4587"/>
</svg>
