<?xml version="1.0" encoding="UTF-8"?>
<svg width="439px" height="462px" viewBox="0 0 439 462" version="1.1" xmlns="http://www.w3.org/2000/svg" xmlns:xlink="http://www.w3.org/1999/xlink">
    <title>Stroer</title>
    <g id="Startseite" stroke="none" stroke-width="1" fill="none" fill-rule="evenodd">
        <g id="Startseite_Desktop" transform="translate(-814.000000, -4099.000000)" fill="#FF5A10">
            <g id="components/desktop/investor-relations" transform="translate(0.000000, 3930.478909)">
                <path d="M939.61103,168.521091 L914.0162,234.97542 L907.978994,238.606036 C885.067992,253.50563 837.524287,291.905718 820.312904,364.776948 C814.5739,388.907874 814,410.17371 814,418.791496 C814,510.671389 864.424459,584.57833 951.027145,615.565208 C989.551612,629.367175 1022.90535,630.521091 1038.4513,630.521091 C1163.04394,630.521091 1253,541.647009 1253,417.04092 C1253,390.551501 1248.97144,369.274408 1246.69272,360.17254 C1229.5151,294.275468 1181.96014,255.852865 1163.04956,243.238588 L1149.14654,234.451936 L1174.50506,168.521091 L1076.13179,168.521091 L1061.48045,206.555303 C1051.50472,205.587139 1041.5346,205.063655 1031.50823,205.316953 L1023.88998,205.350727 L1037.98993,168.521091 L939.61103,168.521091 Z M1000.18921,343.441409 C1014.80918,336.142913 1027.58615,335.535174 1033.67874,335.535174 C1066.62158,334.921807 1093.39291,354.391966 1104.92432,384.694511 C1107.438,390.338606 1111,401.767477 1111,418.525319 C1111,465.568824 1081.95169,487.453057 1066.01288,494.796571 C1059.74557,497.925302 1049.38084,501.521091 1033.12641,501.521091 C986.025765,501.521091 957.597424,463.514891 957,419.712661 C957,373.929651 984.244767,351.403916 1000.18921,343.441409 L1000.18921,343.441409 Z" id="Fill-1"/>
            </g>
        </g>
    </g>
</svg>
